<svg width="30" height="24" viewBox="0 0 30 24" fill="none" xmlns="http://www.w3.org/2000/svg">
<g clip-path="url(#clip0_524_253)">
<path d="M29.0911 17.182L24 15V24H29.25C29.6644 24 30 23.6644 30 23.25V18.5606C30 18.2671 29.9139 17.9801 29.7523 17.735C29.5908 17.49 29.3609 17.2977 29.0911 17.182ZM0 18.5606V23.25C0 23.6644 0.335625 24 0.75 24H6V15L0.908906 17.182C0.639144 17.2977 0.409242 17.49 0.247683 17.735C0.0861234 17.9801 6.20628e-06 18.2671 0 18.5606ZM21.7716 11.5631L19.5 10.2V4.81079C19.5 4.41282 19.342 4.03172 19.0603 3.75L15.5302 0.219849C15.2372 -0.0731201 14.7623 -0.0731201 14.4698 0.219849L10.9397 3.75C10.6584 4.03125 10.5 4.41282 10.5 4.81079V10.2L8.22844 11.5631C8.00629 11.6964 7.82243 11.8849 7.69478 12.1103C7.56712 12.3357 7.50002 12.5903 7.5 12.8494V24H12V19.5C12 17.843 13.3434 16.5 15 16.5C16.6566 16.5 18 17.843 18 19.5V24H22.5V12.8494C22.5 12.3225 22.2234 11.8341 21.7716 11.5631Z" fill="#D00000"/>
</g>
<defs>
<clipPath id="clip0_524_253">
<rect width="30" height="24" fill="white"/>
</clipPath>
</defs>
</svg>
