<svg width="24" height="24" viewBox="0 0 24 24" fill="none" xmlns="http://www.w3.org/2000/svg">
<path d="M11.9998 3.3045L11.4141 4.03125L8.41406 7.78125L8.24981 7.992V12.7028L4.10156 15.3053L4.89806 16.5705L5.24981 16.359V20.25H11.2498V17.25C11.2498 16.8255 11.5753 16.5 11.9998 16.5C12.4243 16.5 12.7498 16.8255 12.7498 17.25V20.25H18.7498V16.359L19.1016 16.5705L19.8981 15.3045L15.7498 12.7035V7.992L15.5856 7.78125L12.5856 4.03125L11.9998 3.3045ZM11.9998 5.6955L14.2498 8.508V11.766L12.3981 10.617L11.9998 10.359L11.6016 10.617L9.74981 11.7653V8.508L11.9998 5.6955ZM11.9998 8.25C11.5873 8.25 11.2498 8.5875 11.2498 9C11.2498 9.4125 11.5873 9.75 11.9998 9.75C12.4123 9.75 12.7498 9.4125 12.7498 9C12.7498 8.5875 12.4123 8.25 11.9998 8.25ZM11.9998 12.141L17.2498 15.4223V18.75H14.2498V17.25C14.2498 16.0163 13.2336 15 11.9998 15C10.7661 15 9.74981 16.0163 9.74981 17.25V18.75H6.74981V15.4215L11.9998 12.141Z" fill="#D00000"/>
</svg>
